<?xml version="1.0" standalone="no"?>
<!DOCTYPE svg PUBLIC "-//W3C//DTD SVG 20010904//EN"
 "http://www.w3.org/TR/2001/REC-SVG-20010904/DTD/svg10.dtd">
<svg version="1.0" xmlns="http://www.w3.org/2000/svg"
 width="443.000000pt" height="443.000000pt" viewBox="0 0 443.000000 443.000000"
 preserveAspectRatio="xMidYMid meet">
<metadata>
Created by potrace 1.11, written by Peter Selinger 2001-2013
</metadata>
<g transform="translate(0.000000,443.000000) scale(0.100000,-0.100000)"
fill="#000000" stroke="none">
<path d="M4104 2747 l-41 -53 34 -44 c19 -25 38 -49 43 -53 4 -5 26 14 49 43
l41 52 -32 44 c-49 68 -49 68 -94 11z"/>
<path d="M160 2770 c0 -5 11 -10 25 -10 14 0 37 -11 50 -25 l25 -24 0 -351 0
-351 -25 -24 c-13 -14 -36 -25 -50 -25 -14 0 -25 -4 -25 -10 0 -6 108 -10 304
-10 l304 0 17 96 c9 52 15 97 12 100 -2 3 -19 -20 -36 -50 -19 -34 -47 -66
-73 -83 -38 -25 -49 -28 -135 -28 -142 0 -133 -27 -133 387 l0 339 25 24 c20
21 34 25 86 25 116 0 158 -24 203 -116 l25 -49 0 60 c1 33 -2 77 -5 98 l-7 37
-293 0 c-189 0 -294 -4 -294 -10z"/>
<path d="M847 2688 c-3 -51 -2 -97 0 -102 3 -5 14 13 24 39 10 26 26 56 36 68
30 33 93 57 156 57 l57 0 0 -360 c0 -242 -4 -367 -11 -383 -11 -25 -47 -47
-74 -47 -8 0 -15 -4 -15 -10 0 -6 67 -10 180 -10 113 0 180 4 180 10 0 6 -11
10 -25 10 -14 0 -37 11 -50 25 l-25 24 0 386 0 385 -214 0 -213 0 -6 -92z"/>
<path d="M1465 2730 l-37 -50 38 -47 37 -46 29 34 c43 52 43 64 5 114 l-35 45
-37 -50z"/>
<path d="M1620 2770 c0 -5 9 -10 19 -10 11 0 33 -11 48 -24 l28 -24 0 -352 0
-352 -28 -24 c-15 -13 -37 -24 -48 -24 -10 0 -19 -4 -19 -10 0 -6 65 -10 175
-10 110 0 175 4 175 10 0 6 -9 10 -19 10 -11 0 -33 11 -48 24 l-28 24 0 352 0
352 28 24 c15 13 37 24 48 24 10 0 19 5 19 10 0 6 -65 10 -175 10 -110 0 -175
-4 -175 -10z"/>
<path d="M2150 2770 c0 -5 7 -10 15 -10 27 0 63 -22 74 -47 7 -16 11 -133 11
-353 0 -220 -4 -337 -11 -353 -11 -25 -47 -47 -74 -47 -8 0 -15 -4 -15 -10 0
-6 67 -10 180 -10 113 0 180 4 180 10 0 6 -11 10 -25 10 -14 0 -37 11 -50 25
l-25 24 0 351 0 351 25 24 c13 14 36 25 50 25 14 0 25 5 25 10 0 6 -67 10
-180 10 -113 0 -180 -4 -180 -10z"/>
<path d="M2874 2638 l-40 -141 -142 -41 c-78 -22 -141 -44 -140 -48 3 -9 830
-469 835 -465 1 2 -30 62 -70 133 -78 138 -271 485 -346 622 -25 45 -48 82
-51 82 -4 0 -24 -64 -46 -142z"/>
<path d="M3430 2770 c0 -5 7 -10 15 -10 29 0 71 -28 83 -55 9 -18 12 -121 12
-356 l0 -331 -29 -29 c-17 -17 -40 -29 -55 -29 -14 0 -26 -4 -26 -10 0 -6 48
-10 125 -10 77 0 125 4 125 10 0 6 -12 10 -26 10 -15 0 -38 12 -55 29 l-29 29
0 301 c0 166 2 301 4 301 2 0 129 -153 282 -340 153 -187 284 -340 291 -340
10 0 13 26 13 109 l0 109 -257 311 -257 311 -108 0 c-65 0 -108 -4 -108 -10z"/>
<path d="M553 2417 l-40 -53 38 -47 c21 -27 41 -48 44 -48 4 0 22 21 42 46 39
52 39 58 -16 123 l-28 33 -40 -54z"/>
<path d="M2023 2415 c-18 -24 -33 -49 -33 -55 0 -13 62 -99 72 -100 3 0 23 23
43 50 l37 50 -37 50 c-20 28 -40 50 -43 50 -4 -1 -22 -21 -39 -45z"/>
<path d="M1680 1700 c0 -18 -7 -20 -84 -20 l-84 0 -4 -147 c-3 -108 -9 -158
-21 -185 -15 -36 -15 -38 3 -48 10 -6 21 -7 23 -3 14 24 31 96 36 148 l6 60
73 3 c59 2 72 0 72 -13 0 -12 -12 -15 -55 -15 -42 0 -55 -3 -55 -15 0 -13 22
-15 135 -15 l135 0 0 30 c0 25 4 30 25 30 18 0 25 5 25 20 0 15 -7 20 -25 20
-21 0 -25 5 -25 30 0 30 -1 30 -55 30 -42 0 -55 3 -55 15 0 12 15 15 75 15 68
0 75 2 75 20 0 18 -7 20 -85 20 -78 0 -85 2 -85 20 0 15 -7 20 -25 20 -18 0
-25 -5 -25 -20z m20 -75 c0 -12 -13 -15 -55 -15 -42 0 -55 -3 -55 -15 0 -12
13 -15 55 -15 42 0 55 -3 55 -15 0 -12 -14 -15 -70 -15 l-70 0 0 45 0 45 70 0
c56 0 70 -3 70 -15z m120 -60 c0 -10 -11 -15 -35 -15 -24 0 -35 5 -35 15 0 10
11 15 35 15 24 0 35 -5 35 -15z m0 -70 c0 -10 -11 -15 -35 -15 -24 0 -35 5
-35 15 0 10 11 15 35 15 24 0 35 -5 35 -15z"/>
<path d="M2170 1690 l0 -30 -90 0 c-83 0 -90 -1 -90 -20 0 -19 7 -20 90 -20
l90 0 0 -35 0 -35 -75 0 c-73 0 -75 -1 -75 -25 0 -24 2 -25 65 -25 47 0 63 -3
60 -12 -3 -7 13 -28 34 -45 35 -29 40 -31 52 -17 11 14 9 20 -19 45 l-32 28
98 3 c92 3 97 4 100 26 3 21 1 22 -77 22 l-81 0 0 35 0 35 95 0 c88 0 95 1 95
20 0 19 -7 20 -95 20 l-95 0 0 30 c0 25 -4 30 -25 30 -21 0 -25 -5 -25 -30z"/>
<path d="M2509 1684 c-7 -9 -8 -18 -3 -22 5 -4 21 -18 36 -31 23 -20 30 -22
43 -11 22 18 19 25 -24 53 -34 23 -41 24 -52 11z"/>
<path d="M2643 1685 c-11 -30 12 -36 123 -33 101 3 109 4 109 23 0 19 -8 20
-113 23 -95 2 -113 0 -119 -13z"/>
<path d="M2610 1570 c0 -16 7 -20 36 -20 l37 0 -6 -47 c-4 -39 -12 -54 -41
-79 -27 -23 -33 -33 -24 -42 18 -18 29 -15 65 20 25 24 36 47 45 90 10 50 15
58 35 58 22 0 23 -3 23 -78 0 -89 8 -102 62 -102 29 0 41 6 54 25 19 29 15 59
-8 63 -11 2 -18 -5 -20 -20 -2 -15 -11 -24 -25 -26 -22 -3 -23 0 -23 67 l0 71
45 0 c38 0 45 3 45 20 0 19 -7 20 -150 20 -143 0 -150 -1 -150 -20z"/>
<path d="M2480 1540 c0 -16 7 -20 30 -20 l30 0 0 -71 c0 -66 -2 -72 -30 -95
-25 -22 -28 -28 -17 -44 11 -19 12 -19 37 5 30 29 47 31 76 10 38 -26 114 -37
212 -30 81 6 92 9 92 26 0 18 -9 19 -127 19 -110 0 -133 3 -160 20 l-33 20 0
90 0 90 -55 0 c-48 0 -55 -2 -55 -20z"/>
<path d="M2100 1381 c0 -42 5 -73 12 -77 6 -4 44 -9 83 -12 64 -4 75 -2 94 17
27 27 28 67 1 74 -16 4 -20 0 -20 -19 0 -23 -3 -24 -65 -24 l-65 0 0 55 c0 48
-2 55 -20 55 -18 0 -20 -7 -20 -69z"/>
<path d="M2305 1440 c-8 -12 64 -120 81 -120 28 0 25 24 -11 76 -36 52 -57 65
-70 44z"/>
<path d="M2025 1413 c-3 -15 -16 -40 -27 -56 -17 -24 -18 -31 -7 -38 8 -5 19
-7 24 -6 16 5 58 96 51 112 -9 24 -33 17 -41 -12z"/>
<path d="M1590 1358 l0 -63 140 0 140 0 0 63 0 62 -140 0 -140 0 0 -62z m230
7 c0 -25 -1 -25 -90 -25 -89 0 -90 0 -90 25 0 25 1 25 90 25 89 0 90 0 90 -25z"/>
</g>
</svg>
